<mxfile host="app.diagrams.net" modified="2023-06-02T14:58:54.234Z" agent="Mozilla/5.0 (Windows NT 10.0; Win64; x64; rv:109.0) Gecko/20100101 Firefox/113.0" etag="yxSw28RnvYIDyB6JsX-x" version="21.3.6">
  <diagram name="P치gina-1" id="TvsvCGtz09fZeyISVffY">
    <mxGraphModel dx="1050" dy="530" grid="1" gridSize="10" guides="1" tooltips="1" connect="1" arrows="1" fold="1" page="1" pageScale="1" pageWidth="827" pageHeight="1169" math="0" shadow="0">
      <root>
        <mxCell id="0" />
        <mxCell id="1" parent="0" />
        <mxCell id="3B_Kt1S6juBT9UlpSrkN-5" style="edgeStyle=orthogonalEdgeStyle;rounded=0;orthogonalLoop=1;jettySize=auto;html=1;exitX=1;exitY=0.5;exitDx=0;exitDy=0;entryX=0;entryY=0.5;entryDx=0;entryDy=0;" edge="1" parent="1" source="3B_Kt1S6juBT9UlpSrkN-1" target="3B_Kt1S6juBT9UlpSrkN-2">
          <mxGeometry relative="1" as="geometry" />
        </mxCell>
        <mxCell id="3B_Kt1S6juBT9UlpSrkN-1" value="Escrever c칩digo fonte" style="rounded=0;whiteSpace=wrap;html=1;" vertex="1" parent="1">
          <mxGeometry x="80" y="40" width="90" height="40" as="geometry" />
        </mxCell>
        <mxCell id="3B_Kt1S6juBT9UlpSrkN-6" style="edgeStyle=orthogonalEdgeStyle;rounded=0;orthogonalLoop=1;jettySize=auto;html=1;exitX=1;exitY=0.5;exitDx=0;exitDy=0;entryX=0;entryY=0.5;entryDx=0;entryDy=0;" edge="1" parent="1" source="3B_Kt1S6juBT9UlpSrkN-2" target="3B_Kt1S6juBT9UlpSrkN-3">
          <mxGeometry relative="1" as="geometry" />
        </mxCell>
        <mxCell id="3B_Kt1S6juBT9UlpSrkN-2" value="Passar c칩digo fonte ao execut치vel" style="whiteSpace=wrap;html=1;" vertex="1" parent="1">
          <mxGeometry x="200" y="40" width="120" height="40" as="geometry" />
        </mxCell>
        <mxCell id="3B_Kt1S6juBT9UlpSrkN-4" style="edgeStyle=orthogonalEdgeStyle;rounded=0;orthogonalLoop=1;jettySize=auto;html=1;entryX=0.5;entryY=1;entryDx=0;entryDy=0;" edge="1" parent="1" source="3B_Kt1S6juBT9UlpSrkN-3" target="3B_Kt1S6juBT9UlpSrkN-1">
          <mxGeometry relative="1" as="geometry">
            <Array as="points">
              <mxPoint x="405" y="100" />
              <mxPoint x="125" y="100" />
            </Array>
          </mxGeometry>
        </mxCell>
        <mxCell id="3B_Kt1S6juBT9UlpSrkN-9" style="edgeStyle=orthogonalEdgeStyle;rounded=0;orthogonalLoop=1;jettySize=auto;html=1;exitX=1;exitY=0.5;exitDx=0;exitDy=0;entryX=0;entryY=0.5;entryDx=0;entryDy=0;" edge="1" parent="1" source="3B_Kt1S6juBT9UlpSrkN-3" target="3B_Kt1S6juBT9UlpSrkN-7">
          <mxGeometry relative="1" as="geometry" />
        </mxCell>
        <mxCell id="3B_Kt1S6juBT9UlpSrkN-3" value="Observar as respostas" style="whiteSpace=wrap;html=1;" vertex="1" parent="1">
          <mxGeometry x="350" y="40" width="110" height="40" as="geometry" />
        </mxCell>
        <mxCell id="3B_Kt1S6juBT9UlpSrkN-10" value="" style="edgeStyle=orthogonalEdgeStyle;rounded=0;orthogonalLoop=1;jettySize=auto;html=1;" edge="1" parent="1" source="3B_Kt1S6juBT9UlpSrkN-7" target="3B_Kt1S6juBT9UlpSrkN-8">
          <mxGeometry relative="1" as="geometry" />
        </mxCell>
        <mxCell id="3B_Kt1S6juBT9UlpSrkN-7" value="Exportar resultados" style="whiteSpace=wrap;html=1;" vertex="1" parent="1">
          <mxGeometry x="490" y="40" width="100" height="40" as="geometry" />
        </mxCell>
        <mxCell id="3B_Kt1S6juBT9UlpSrkN-8" value="Fim" style="whiteSpace=wrap;html=1;" vertex="1" parent="1">
          <mxGeometry x="620" y="40" width="90" height="40" as="geometry" />
        </mxCell>
      </root>
    </mxGraphModel>
  </diagram>
</mxfile>
